<svg height="512" viewBox="0 0 64 64" width="512" xmlns="http://www.w3.org/2000/svg"><path d="m60 29h-25v-25a3 3 0 0 0 -3-3h-28a3 3 0 0 0 -3 3v56a3 3 0 0 0 3 3h56a3 3 0 0 0 3-3v-28a3 3 0 0 0 -3-3zm-36.281-26-.5 2h-10.438l-.5-2zm-20.719 1a1 1 0 0 1 1-1h6.219l.811 3.243a1 1 0 0 0 .97.757h12a1 1 0 0 0 .97-.757l.811-3.243h6.219a1 1 0 0 1 1 1v25h-30zm58 47.719-2-.5v-10.438l2-.5zm0-13.5-3.243.811a1 1 0 0 0 -.757.97v12a1 1 0 0 0 .757.97l3.243.811v6.219a1 1 0 0 1 -1 1h-56a1 1 0 0 1 -1-1v-28a1 1 0 0 1 1-1h56a1 1 0 0 1 1 1z"/><path d="m5 32a1 1 0 0 0 -1 1v7a1 1 0 0 0 2 0v-7a1 1 0 0 0 -1-1z"/><path d="m5 42a1 1 0 0 0 -1 1v1a1 1 0 0 0 2 0v-1a1 1 0 0 0 -1-1z"/><path d="m37 6h2a19.021 19.021 0 0 1 19 19v2a1 1 0 0 0 2 0v-2a21.023 21.023 0 0 0 -21-21h-2a1 1 0 0 0 0 2z"/></svg>