<?xml version="1.0"?>
<svg xmlns="http://www.w3.org/2000/svg" xmlns:xlink="http://www.w3.org/1999/xlink" xmlns:svgjs="http://svgjs.com/svgjs" version="1.1" width="512" height="512" x="0" y="0" viewBox="0 0 512 512" style="enable-background:new 0 0 512 512" xml:space="preserve" class=""><g><path xmlns="http://www.w3.org/2000/svg" d="m256 0c-141.385 0-256 114.615-256 256s114.615 256 256 256 256-114.615 256-256-114.615-256-256-256zm83.314 387.313c-6.249 6.249-16.379 6.248-22.627 0l-60.687-60.686-60.687 60.687c-6.248 6.248-16.379 6.248-22.627 0-6.249-6.248-6.249-16.379 0-22.627l72-72c6.248-6.248 16.379-6.248 22.627 0l72 72c6.25 6.248 6.25 16.378.001 22.626zm0-88c-6.249 6.249-16.379 6.248-22.627 0l-60.687-60.686-60.687 60.687c-6.248 6.248-16.379 6.248-22.627 0-6.249-6.248-6.249-16.379 0-22.627l72-72c6.248-6.248 16.379-6.248 22.627 0l72 72c6.25 6.248 6.25 16.378.001 22.626zm0-88c-6.249 6.249-16.379 6.248-22.627 0l-60.687-60.686-60.687 60.687c-6.248 6.248-16.379 6.248-22.627 0-6.249-6.248-6.249-16.379 0-22.627l72-72c6.248-6.248 16.379-6.248 22.627 0l72 72c6.25 6.248 6.25 16.378.001 22.626z" fill="#000000" data-original="#000000" style="" class=""/></g></svg>
